<svg xmlns="http://www.w3.org/2000/svg" xmlns:xlink="http://www.w3.org/1999/xlink" width="417" zoomAndPan="magnify" viewBox="0 0 312.75 116.249996" height="155" preserveAspectRatio="xMidYMid meet" version="1.0"><defs><filter x="0%" y="0%" width="100%" height="100%" id="d3f6d0c9f3"><feColorMatrix values="0 0 0 0 1 0 0 0 0 1 0 0 0 0 1 0 0 0 1 0" color-interpolation-filters="sRGB"/></filter><g/><clipPath id="5303eff1ca"><path d="M 0.878906 20.753906 L 74.988281 20.753906 L 74.988281 94.863281 L 0.878906 94.863281 Z M 0.878906 20.753906 " clip-rule="nonzero"/></clipPath><clipPath id="52389c5541"><path d="M 19.003906 49.84375 L 61.207031 49.84375 L 61.207031 81.75 L 19.003906 81.75 Z M 19.003906 49.84375 " clip-rule="nonzero"/></clipPath><clipPath id="901a6f3c4e"><path d="M 22.3125 81.402344 L 39.832031 81.402344 C 40.542969 81.40625 41.242188 81.320312 41.933594 81.144531 C 42.621094 80.96875 43.277344 80.710938 43.898438 80.367188 C 44.523438 80.027344 45.09375 79.609375 45.609375 79.121094 C 46.125 78.632812 46.574219 78.085938 46.949219 77.484375 L 61.003906 54.722656 C 62.328125 52.578125 60.742188 49.851562 58.171875 49.851562 L 40.535156 49.851562 C 39.839844 49.847656 39.160156 49.933594 38.488281 50.105469 C 37.816406 50.273438 37.175781 50.527344 36.570312 50.863281 C 35.960938 51.195312 35.40625 51.601562 34.902344 52.078125 C 34.398438 52.554688 33.960938 53.085938 33.59375 53.671875 L 19.480469 76.542969 C 18.160156 78.675781 19.746094 81.402344 22.3125 81.402344 Z M 22.3125 81.402344 " clip-rule="nonzero"/></clipPath><linearGradient x1="38.132782" gradientTransform="matrix(0.123563, 0, 0, 0.123563, 19.00396, 49.851699)" y1="-31.971709" x2="304.715338" gradientUnits="userSpaceOnUse" y2="286.23377" id="5061158e1c"><stop stop-opacity="1" stop-color="rgb(13.299561%, 77.2995%, 36.898804%)" offset="0"/><stop stop-opacity="1" stop-color="rgb(13.258362%, 77.180481%, 36.828613%)" offset="0.25"/><stop stop-opacity="1" stop-color="rgb(13.150024%, 76.872253%, 36.647034%)" offset="0.265625"/><stop stop-opacity="1" stop-color="rgb(13.015747%, 76.493835%, 36.424255%)" offset="0.28125"/><stop stop-opacity="1" stop-color="rgb(12.882996%, 76.113892%, 36.199951%)" offset="0.296875"/><stop stop-opacity="1" stop-color="rgb(12.750244%, 75.733948%, 35.975647%)" offset="0.3125"/><stop stop-opacity="1" stop-color="rgb(12.615967%, 75.354004%, 35.752869%)" offset="0.328125"/><stop stop-opacity="1" stop-color="rgb(12.483215%, 74.97406%, 35.528564%)" offset="0.34375"/><stop stop-opacity="1" stop-color="rgb(12.350464%, 74.595642%, 35.30426%)" offset="0.359375"/><stop stop-opacity="1" stop-color="rgb(12.217712%, 74.215698%, 35.081482%)" offset="0.375"/><stop stop-opacity="1" stop-color="rgb(12.083435%, 73.835754%, 34.857178%)" offset="0.390625"/><stop stop-opacity="1" stop-color="rgb(11.950684%, 73.455811%, 34.632874%)" offset="0.40625"/><stop stop-opacity="1" stop-color="rgb(11.817932%, 73.075867%, 34.410095%)" offset="0.421875"/><stop stop-opacity="1" stop-color="rgb(11.685181%, 72.697449%, 34.185791%)" offset="0.4375"/><stop stop-opacity="1" stop-color="rgb(11.550903%, 72.317505%, 33.961487%)" offset="0.453125"/><stop stop-opacity="1" stop-color="rgb(11.418152%, 71.937561%, 33.738708%)" offset="0.46875"/><stop stop-opacity="1" stop-color="rgb(11.2854%, 71.557617%, 33.514404%)" offset="0.471623"/><stop stop-opacity="1" stop-color="rgb(11.219788%, 71.368408%, 33.403015%)" offset="0.484375"/><stop stop-opacity="1" stop-color="rgb(11.152649%, 71.177673%, 33.2901%)" offset="0.5"/><stop stop-opacity="1" stop-color="rgb(11.018372%, 70.799255%, 33.067322%)" offset="0.515625"/><stop stop-opacity="1" stop-color="rgb(10.88562%, 70.419312%, 32.843018%)" offset="0.528377"/><stop stop-opacity="1" stop-color="rgb(10.820007%, 70.230103%, 32.731628%)" offset="0.53125"/><stop stop-opacity="1" stop-color="rgb(10.752869%, 70.039368%, 32.618713%)" offset="0.546875"/><stop stop-opacity="1" stop-color="rgb(10.618591%, 69.659424%, 32.394409%)" offset="0.5625"/><stop stop-opacity="1" stop-color="rgb(10.48584%, 69.27948%, 32.171631%)" offset="0.578125"/><stop stop-opacity="1" stop-color="rgb(10.353088%, 68.899536%, 31.947327%)" offset="0.59375"/><stop stop-opacity="1" stop-color="rgb(10.220337%, 68.521118%, 31.723022%)" offset="0.609375"/><stop stop-opacity="1" stop-color="rgb(10.08606%, 68.141174%, 31.500244%)" offset="0.625"/><stop stop-opacity="1" stop-color="rgb(9.953308%, 67.76123%, 31.27594%)" offset="0.640625"/><stop stop-opacity="1" stop-color="rgb(9.820557%, 67.381287%, 31.051636%)" offset="0.65625"/><stop stop-opacity="1" stop-color="rgb(9.687805%, 67.001343%, 30.828857%)" offset="0.671875"/><stop stop-opacity="1" stop-color="rgb(9.553528%, 66.622925%, 30.604553%)" offset="0.6875"/><stop stop-opacity="1" stop-color="rgb(9.420776%, 66.242981%, 30.380249%)" offset="0.703125"/><stop stop-opacity="1" stop-color="rgb(9.288025%, 65.863037%, 30.157471%)" offset="0.71875"/><stop stop-opacity="1" stop-color="rgb(9.155273%, 65.483093%, 29.933167%)" offset="0.734375"/><stop stop-opacity="1" stop-color="rgb(9.020996%, 65.103149%, 29.708862%)" offset="0.75"/><stop stop-opacity="1" stop-color="rgb(8.888245%, 64.724731%, 29.486084%)" offset="0.765625"/><stop stop-opacity="1" stop-color="rgb(8.755493%, 64.344788%, 29.26178%)" offset="0.78125"/><stop stop-opacity="1" stop-color="rgb(8.644104%, 64.027405%, 29.074097%)" offset="0.8125"/><stop stop-opacity="1" stop-color="rgb(8.599854%, 63.899231%, 28.999329%)" offset="0.875"/><stop stop-opacity="1" stop-color="rgb(8.599854%, 63.899231%, 28.999329%)" offset="1"/></linearGradient><mask id="5966ec91b0"><g filter="url(#d3f6d0c9f3)"><rect x="-31.275" width="375.3" fill="#000000" y="-11.625" height="139.499996" fill-opacity="0.85"/></g></mask><clipPath id="7eb456f25d"><path d="M 0.238281 1.046875 L 42.441406 1.046875 L 42.441406 32.816406 L 0.238281 32.816406 Z M 0.238281 1.046875 " clip-rule="nonzero"/></clipPath><clipPath id="4a6da7d378"><path d="M 3.546875 32.609375 L 21.066406 32.609375 C 21.777344 32.613281 22.476562 32.527344 23.167969 32.351562 C 23.855469 32.175781 24.511719 31.917969 25.132812 31.574219 C 25.757812 31.230469 26.328125 30.816406 26.84375 30.328125 C 27.359375 29.839844 27.804688 29.292969 28.183594 28.691406 L 42.238281 5.929688 C 43.558594 3.785156 41.976562 1.058594 39.40625 1.058594 L 21.769531 1.058594 C 21.074219 1.054688 20.394531 1.140625 19.722656 1.308594 C 19.050781 1.480469 18.410156 1.734375 17.800781 2.070312 C 17.195312 2.402344 16.640625 2.808594 16.136719 3.285156 C 15.632812 3.761719 15.195312 4.292969 14.828125 4.878906 L 0.714844 27.746094 C -0.609375 29.882812 0.980469 32.609375 3.546875 32.609375 Z M 3.546875 32.609375 " clip-rule="nonzero"/></clipPath><linearGradient x1="0" gradientTransform="matrix(0.123563, 0, 0, 0.123563, 0.237544, 1.058146)" y1="127.68" x2="341.547214" gradientUnits="userSpaceOnUse" y2="127.68" id="785cf81dea"><stop stop-opacity="1" stop-color="rgb(13.299561%, 77.2995%, 36.898804%)" offset="0"/><stop stop-opacity="1" stop-color="rgb(13.421631%, 77.375793%, 37.002563%)" offset="0.015625"/><stop stop-opacity="1" stop-color="rgb(13.664246%, 77.526855%, 37.208557%)" offset="0.03125"/><stop stop-opacity="1" stop-color="rgb(13.908386%, 77.679443%, 37.414551%)" offset="0.046875"/><stop stop-opacity="1" stop-color="rgb(14.152527%, 77.832031%, 37.62207%)" offset="0.0625"/><stop stop-opacity="1" stop-color="rgb(14.395142%, 77.983093%, 37.828064%)" offset="0.078125"/><stop stop-opacity="1" stop-color="rgb(14.639282%, 78.135681%, 38.034058%)" offset="0.09375"/><stop stop-opacity="1" stop-color="rgb(14.883423%, 78.288269%, 38.240051%)" offset="0.109375"/><stop stop-opacity="1" stop-color="rgb(15.127563%, 78.439331%, 38.447571%)" offset="0.125"/><stop stop-opacity="1" stop-color="rgb(15.370178%, 78.591919%, 38.653564%)" offset="0.140625"/><stop stop-opacity="1" stop-color="rgb(15.614319%, 78.744507%, 38.859558%)" offset="0.15625"/><stop stop-opacity="1" stop-color="rgb(15.858459%, 78.897095%, 39.067078%)" offset="0.171875"/><stop stop-opacity="1" stop-color="rgb(16.1026%, 79.048157%, 39.273071%)" offset="0.1875"/><stop stop-opacity="1" stop-color="rgb(16.345215%, 79.200745%, 39.479065%)" offset="0.203125"/><stop stop-opacity="1" stop-color="rgb(16.589355%, 79.353333%, 39.686584%)" offset="0.21875"/><stop stop-opacity="1" stop-color="rgb(16.833496%, 79.504395%, 39.892578%)" offset="0.234375"/><stop stop-opacity="1" stop-color="rgb(17.077637%, 79.656982%, 40.098572%)" offset="0.25"/><stop stop-opacity="1" stop-color="rgb(17.320251%, 79.80957%, 40.306091%)" offset="0.265625"/><stop stop-opacity="1" stop-color="rgb(17.564392%, 79.962158%, 40.512085%)" offset="0.28125"/><stop stop-opacity="1" stop-color="rgb(17.808533%, 80.11322%, 40.718079%)" offset="0.296875"/><stop stop-opacity="1" stop-color="rgb(18.051147%, 80.265808%, 40.925598%)" offset="0.3125"/><stop stop-opacity="1" stop-color="rgb(18.295288%, 80.418396%, 41.131592%)" offset="0.328125"/><stop stop-opacity="1" stop-color="rgb(18.539429%, 80.569458%, 41.337585%)" offset="0.34375"/><stop stop-opacity="1" stop-color="rgb(18.783569%, 80.722046%, 41.545105%)" offset="0.359375"/><stop stop-opacity="1" stop-color="rgb(19.026184%, 80.874634%, 41.751099%)" offset="0.375"/><stop stop-opacity="1" stop-color="rgb(19.270325%, 81.025696%, 41.957092%)" offset="0.390625"/><stop stop-opacity="1" stop-color="rgb(19.514465%, 81.178284%, 42.163086%)" offset="0.40625"/><stop stop-opacity="1" stop-color="rgb(19.758606%, 81.330872%, 42.370605%)" offset="0.421875"/><stop stop-opacity="1" stop-color="rgb(20.001221%, 81.483459%, 42.576599%)" offset="0.4375"/><stop stop-opacity="1" stop-color="rgb(20.245361%, 81.634521%, 42.782593%)" offset="0.453125"/><stop stop-opacity="1" stop-color="rgb(20.489502%, 81.787109%, 42.990112%)" offset="0.46875"/><stop stop-opacity="1" stop-color="rgb(20.733643%, 81.939697%, 43.196106%)" offset="0.484375"/><stop stop-opacity="1" stop-color="rgb(20.976257%, 82.090759%, 43.4021%)" offset="0.5"/><stop stop-opacity="1" stop-color="rgb(21.220398%, 82.243347%, 43.609619%)" offset="0.515625"/><stop stop-opacity="1" stop-color="rgb(21.464539%, 82.395935%, 43.815613%)" offset="0.53125"/><stop stop-opacity="1" stop-color="rgb(21.707153%, 82.548523%, 44.021606%)" offset="0.546875"/><stop stop-opacity="1" stop-color="rgb(21.951294%, 82.699585%, 44.229126%)" offset="0.5625"/><stop stop-opacity="1" stop-color="rgb(22.195435%, 82.852173%, 44.43512%)" offset="0.578125"/><stop stop-opacity="1" stop-color="rgb(22.439575%, 83.004761%, 44.641113%)" offset="0.59375"/><stop stop-opacity="1" stop-color="rgb(22.68219%, 83.155823%, 44.848633%)" offset="0.609375"/><stop stop-opacity="1" stop-color="rgb(22.926331%, 83.308411%, 45.054626%)" offset="0.625"/><stop stop-opacity="1" stop-color="rgb(23.170471%, 83.460999%, 45.26062%)" offset="0.640625"/><stop stop-opacity="1" stop-color="rgb(23.414612%, 83.612061%, 45.46814%)" offset="0.65625"/><stop stop-opacity="1" stop-color="rgb(23.657227%, 83.764648%, 45.674133%)" offset="0.671875"/><stop stop-opacity="1" stop-color="rgb(23.901367%, 83.917236%, 45.880127%)" offset="0.6875"/><stop stop-opacity="1" stop-color="rgb(24.145508%, 84.069824%, 46.086121%)" offset="0.703125"/><stop stop-opacity="1" stop-color="rgb(24.389648%, 84.220886%, 46.29364%)" offset="0.71875"/><stop stop-opacity="1" stop-color="rgb(24.632263%, 84.373474%, 46.499634%)" offset="0.734375"/><stop stop-opacity="1" stop-color="rgb(24.876404%, 84.526062%, 46.705627%)" offset="0.75"/><stop stop-opacity="1" stop-color="rgb(25.120544%, 84.677124%, 46.913147%)" offset="0.765625"/><stop stop-opacity="1" stop-color="rgb(25.363159%, 84.829712%, 47.119141%)" offset="0.78125"/><stop stop-opacity="1" stop-color="rgb(25.6073%, 84.9823%, 47.325134%)" offset="0.796875"/><stop stop-opacity="1" stop-color="rgb(25.85144%, 85.134888%, 47.532654%)" offset="0.8125"/><stop stop-opacity="1" stop-color="rgb(26.095581%, 85.28595%, 47.738647%)" offset="0.828125"/><stop stop-opacity="1" stop-color="rgb(26.338196%, 85.438538%, 47.944641%)" offset="0.84375"/><stop stop-opacity="1" stop-color="rgb(26.582336%, 85.591125%, 48.152161%)" offset="0.859375"/><stop stop-opacity="1" stop-color="rgb(26.826477%, 85.742188%, 48.358154%)" offset="0.875"/><stop stop-opacity="1" stop-color="rgb(27.070618%, 85.894775%, 48.564148%)" offset="0.890625"/><stop stop-opacity="1" stop-color="rgb(27.313232%, 86.047363%, 48.771667%)" offset="0.90625"/><stop stop-opacity="1" stop-color="rgb(27.557373%, 86.198425%, 48.977661%)" offset="0.921875"/><stop stop-opacity="1" stop-color="rgb(27.801514%, 86.351013%, 49.183655%)" offset="0.9375"/><stop stop-opacity="1" stop-color="rgb(28.045654%, 86.503601%, 49.391174%)" offset="0.953125"/><stop stop-opacity="1" stop-color="rgb(28.288269%, 86.656189%, 49.597168%)" offset="0.96875"/><stop stop-opacity="1" stop-color="rgb(28.53241%, 86.807251%, 49.803162%)" offset="0.984375"/><stop stop-opacity="1" stop-color="rgb(28.77655%, 86.959839%, 50.009155%)" offset="1"/></linearGradient><clipPath id="cb13dc6b9b"><rect x="0" width="43" y="0" height="33"/></clipPath></defs><g fill="#09090b" fill-opacity="1"><g transform="translate(75.433246, 76.442946)"><g><path d="M 19.484375 0.609375 C 16.554688 0.609375 13.875 -0.109375 11.4375 -1.546875 C 9 -2.984375 7.0625 -4.921875 5.625 -7.359375 C 4.1875 -9.796875 3.46875 -12.476562 3.46875 -15.40625 C 3.46875 -18.375 4.1875 -21.0625 5.625 -23.46875 C 7.0625 -25.882812 9 -27.8125 11.4375 -29.25 C 13.875 -30.6875 16.554688 -31.40625 19.484375 -31.40625 C 23.078125 -31.40625 26.257812 -30.363281 29.03125 -28.28125 C 31.800781 -26.207031 33.695312 -23.554688 34.71875 -20.328125 L 29.640625 -20.328125 C 28.710938 -22.222656 27.347656 -23.75 25.546875 -24.90625 C 23.753906 -26.0625 21.734375 -26.640625 19.484375 -26.640625 C 17.429688 -26.640625 15.539062 -26.140625 13.8125 -25.140625 C 12.09375 -24.140625 10.734375 -22.789062 9.734375 -21.09375 C 8.734375 -19.40625 8.234375 -17.507812 8.234375 -15.40625 C 8.234375 -13.289062 8.734375 -11.382812 9.734375 -9.6875 C 10.734375 -8 12.09375 -6.65625 13.8125 -5.65625 C 15.539062 -4.65625 17.429688 -4.15625 19.484375 -4.15625 C 21.734375 -4.15625 23.753906 -4.734375 25.546875 -5.890625 C 27.347656 -7.046875 28.710938 -8.570312 29.640625 -10.46875 L 34.71875 -10.46875 C 33.695312 -7.238281 31.800781 -4.582031 29.03125 -2.5 C 26.257812 -0.425781 23.078125 0.609375 19.484375 0.609375 Z M 19.484375 0.609375 "/></g></g></g><g fill="#09090b" fill-opacity="1"><g transform="translate(112.159162, 76.442946)"><g><path d="M 38.65625 -4 L 40.578125 -4 L 40.578125 0 C 39.910156 0.40625 39.140625 0.609375 38.265625 0.609375 C 36.472656 0.609375 34.972656 0.125 33.765625 -0.84375 C 32.554688 -1.820312 31.695312 -3.109375 31.1875 -4.703125 C 29.75 -3.109375 28.015625 -1.820312 25.984375 -0.84375 C 23.953125 0.125 21.785156 0.609375 19.484375 0.609375 C 16.554688 0.609375 13.875 -0.109375 11.4375 -1.546875 C 9 -2.984375 7.0625 -4.921875 5.625 -7.359375 C 4.1875 -9.796875 3.46875 -12.476562 3.46875 -15.40625 C 3.46875 -18.375 4.1875 -21.0625 5.625 -23.46875 C 7.0625 -25.882812 9 -27.8125 11.4375 -29.25 C 13.875 -30.6875 16.554688 -31.40625 19.484375 -31.40625 C 21.691406 -31.40625 23.753906 -30.992188 25.671875 -30.171875 C 27.597656 -29.359375 29.28125 -28.234375 30.71875 -26.796875 L 30.71875 -30.796875 L 35.5 -30.796875 L 35.5 -8 C 35.5 -6.5625 35.816406 -5.535156 36.453125 -4.921875 C 37.097656 -4.304688 37.832031 -4 38.65625 -4 Z M 19.484375 -4.15625 C 21.535156 -4.15625 23.40625 -4.65625 25.09375 -5.65625 C 26.789062 -6.65625 28.148438 -8.015625 29.171875 -9.734375 C 30.203125 -11.453125 30.71875 -13.34375 30.71875 -15.40625 C 30.71875 -17.507812 30.203125 -19.40625 29.171875 -21.09375 C 28.148438 -22.789062 26.789062 -24.140625 25.09375 -25.140625 C 23.40625 -26.140625 21.535156 -26.640625 19.484375 -26.640625 C 17.429688 -26.640625 15.539062 -26.140625 13.8125 -25.140625 C 12.09375 -24.140625 10.734375 -22.789062 9.734375 -21.09375 C 8.734375 -19.40625 8.234375 -17.507812 8.234375 -15.40625 C 8.234375 -13.34375 8.734375 -11.453125 9.734375 -9.734375 C 10.734375 -8.015625 12.09375 -6.65625 13.8125 -5.65625 C 15.539062 -4.65625 17.429688 -4.15625 19.484375 -4.15625 Z M 19.484375 -4.15625 "/></g></g></g><g fill="#09090b" fill-opacity="1"><g transform="translate(153.658671, 76.442946)"><g><path d="M 13.25 0.609375 C 10.78125 0.609375 8.519531 -0.0390625 6.46875 -1.34375 C 4.414062 -2.65625 3.109375 -4.234375 2.546875 -6.078125 L 7.15625 -7.9375 C 7.414062 -6.800781 8.132812 -5.875 9.3125 -5.15625 C 10.5 -4.4375 11.8125 -4.078125 13.25 -4.078125 C 14.632812 -4.078125 15.828125 -4.445312 16.828125 -5.1875 C 17.828125 -5.9375 18.328125 -6.976562 18.328125 -8.3125 C 18.328125 -9.539062 17.835938 -10.488281 16.859375 -11.15625 C 15.890625 -11.832031 14.476562 -12.53125 12.625 -13.25 C 9.90625 -14.269531 7.773438 -15.484375 6.234375 -16.890625 C 4.691406 -18.304688 3.921875 -20.222656 3.921875 -22.640625 C 3.921875 -24.535156 4.34375 -26.125 5.1875 -27.40625 C 6.039062 -28.6875 7.160156 -29.671875 8.546875 -30.359375 C 9.929688 -31.054688 11.367188 -31.40625 12.859375 -31.40625 C 14.804688 -31.40625 16.648438 -30.90625 18.390625 -29.90625 C 20.140625 -28.90625 21.296875 -27.710938 21.859375 -26.328125 L 17.703125 -24.171875 C 17.296875 -24.992188 16.679688 -25.609375 15.859375 -26.015625 C 15.035156 -26.429688 14.113281 -26.640625 13.09375 -26.640625 C 11.800781 -26.640625 10.757812 -26.332031 9.96875 -25.71875 C 9.175781 -25.101562 8.78125 -24.128906 8.78125 -22.796875 C 8.78125 -21.453125 9.253906 -20.457031 10.203125 -19.8125 C 11.148438 -19.175781 12.570312 -18.445312 14.46875 -17.625 C 15.800781 -17.113281 17.132812 -16.484375 18.46875 -15.734375 C 19.8125 -14.992188 20.914062 -14.035156 21.78125 -12.859375 C 22.65625 -11.679688 23.09375 -10.164062 23.09375 -8.3125 C 23.09375 -5.644531 22.128906 -3.488281 20.203125 -1.84375 C 18.285156 -0.207031 15.96875 0.609375 13.25 0.609375 Z M 13.25 0.609375 "/></g></g></g><g fill="#22c55e" fill-opacity="1"><g transform="translate(179.154693, 76.442946)"><g><path d="M 19.9375 -31.40625 C 22.09375 -31.40625 24.03125 -30.878906 25.75 -29.828125 C 27.46875 -28.773438 28.835938 -27.363281 29.859375 -25.59375 C 30.890625 -23.820312 31.40625 -21.8125 31.40625 -19.5625 L 31.40625 0 L 24.09375 0 L 24.09375 -18.859375 C 24.09375 -20.503906 23.539062 -21.878906 22.4375 -22.984375 C 21.332031 -24.085938 19.960938 -24.640625 18.328125 -24.640625 C 16.679688 -24.640625 15.28125 -24.035156 14.125 -22.828125 C 12.96875 -21.617188 12.390625 -20.195312 12.390625 -18.5625 L 12.390625 0 L 5.078125 0 L 5.078125 -54.8125 L 12.390625 -54.8125 L 12.390625 -28.5625 C 13.421875 -29.4375 14.578125 -30.128906 15.859375 -30.640625 C 17.140625 -31.148438 18.5 -31.40625 19.9375 -31.40625 Z M 19.9375 -31.40625 "/></g></g></g><g fill="#22c55e" fill-opacity="1"><g transform="translate(215.110674, 76.442946)"><g><path d="M 17.171875 0.609375 C 13.117188 0.609375 9.945312 -0.460938 7.65625 -2.609375 C 5.375 -4.765625 4.234375 -7.691406 4.234375 -11.390625 L 4.234375 -30.796875 L 11.46875 -30.796875 L 11.46875 -12.3125 C 11.46875 -10.414062 12.003906 -8.914062 13.078125 -7.8125 C 14.160156 -6.707031 15.523438 -6.15625 17.171875 -6.15625 C 18.816406 -6.15625 20.175781 -6.707031 21.25 -7.8125 C 22.320312 -8.914062 22.859375 -10.414062 22.859375 -12.3125 L 22.859375 -30.796875 L 30.109375 -30.796875 L 30.109375 -11.390625 C 30.109375 -7.691406 28.960938 -4.765625 26.671875 -2.609375 C 24.390625 -0.460938 21.222656 0.609375 17.171875 0.609375 Z M 17.171875 0.609375 "/></g></g></g><g fill="#22c55e" fill-opacity="1"><g transform="translate(249.449794, 76.442946)"><g><path d="M 22.328125 -31.40625 C 25.253906 -31.40625 27.894531 -30.6875 30.25 -29.25 C 32.613281 -27.8125 34.488281 -25.882812 35.875 -23.46875 C 37.257812 -21.0625 37.953125 -18.375 37.953125 -15.40625 C 37.953125 -12.425781 37.257812 -9.726562 35.875 -7.3125 C 34.488281 -4.90625 32.613281 -2.984375 30.25 -1.546875 C 27.894531 -0.109375 25.253906 0.609375 22.328125 0.609375 C 20.378906 0.609375 18.566406 0.265625 16.890625 -0.421875 C 15.222656 -1.117188 13.722656 -2.054688 12.390625 -3.234375 L 12.390625 0 L 5.078125 0 L 5.078125 -54.8125 L 12.390625 -54.8125 L 12.390625 -27.5625 C 13.722656 -28.738281 15.222656 -29.671875 16.890625 -30.359375 C 18.566406 -31.054688 20.378906 -31.40625 22.328125 -31.40625 Z M 21.40625 -6.15625 C 23.144531 -6.15625 24.707031 -6.566406 26.09375 -7.390625 C 27.476562 -8.210938 28.582031 -9.328125 29.40625 -10.734375 C 30.226562 -12.148438 30.640625 -13.707031 30.640625 -15.40625 C 30.640625 -17.144531 30.226562 -18.707031 29.40625 -20.09375 C 28.582031 -21.476562 27.476562 -22.582031 26.09375 -23.40625 C 24.707031 -24.226562 23.144531 -24.640625 21.40625 -24.640625 C 19.707031 -24.640625 18.148438 -24.226562 16.734375 -23.40625 C 15.328125 -22.582031 14.210938 -21.476562 13.390625 -20.09375 C 12.578125 -18.707031 12.171875 -17.144531 12.171875 -15.40625 C 12.171875 -13.707031 12.578125 -12.148438 13.390625 -10.734375 C 14.210938 -9.328125 15.328125 -8.210938 16.734375 -7.390625 C 18.148438 -6.566406 19.707031 -6.15625 21.40625 -6.15625 Z M 21.40625 -6.15625 "/></g></g></g><g clip-path="url(#5303eff1ca)"><path fill="#09090b" d="M 16.1875 20.753906 L 59.539062 20.753906 C 60.542969 20.753906 61.539062 20.851562 62.523438 21.046875 C 63.507812 21.242188 64.46875 21.53125 65.394531 21.917969 C 66.324219 22.300781 67.207031 22.773438 68.042969 23.332031 C 68.878906 23.890625 69.652344 24.523438 70.363281 25.234375 C 71.074219 25.945312 71.707031 26.71875 72.265625 27.554688 C 72.824219 28.390625 73.296875 29.273438 73.679688 30.203125 C 74.066406 31.128906 74.355469 32.089844 74.550781 33.074219 C 74.746094 34.058594 74.84375 35.054688 74.84375 36.058594 L 74.84375 79.410156 C 74.84375 80.417969 74.746094 81.410156 74.550781 82.398438 C 74.355469 83.382812 74.066406 84.339844 73.679688 85.269531 C 73.296875 86.199219 72.824219 87.082031 72.265625 87.917969 C 71.707031 88.75 71.074219 89.523438 70.363281 90.234375 C 69.652344 90.945312 68.878906 91.582031 68.042969 92.140625 C 67.207031 92.699219 66.324219 93.167969 65.394531 93.554688 C 64.46875 93.9375 63.507812 94.230469 62.523438 94.425781 C 61.539062 94.621094 60.542969 94.71875 59.539062 94.71875 L 16.1875 94.71875 C 15.179688 94.71875 14.1875 94.621094 13.199219 94.425781 C 12.214844 94.230469 11.257812 93.9375 10.328125 93.554688 C 9.398438 93.167969 8.515625 92.699219 7.679688 92.140625 C 6.847656 91.582031 6.074219 90.945312 5.363281 90.234375 C 4.652344 89.523438 4.015625 88.75 3.457031 87.917969 C 2.898438 87.082031 2.429688 86.199219 2.042969 85.269531 C 1.660156 84.339844 1.367188 83.382812 1.171875 82.398438 C 0.976562 81.410156 0.878906 80.417969 0.878906 79.410156 L 0.878906 36.058594 C 0.878906 35.054688 0.976562 34.058594 1.171875 33.074219 C 1.367188 32.089844 1.660156 31.128906 2.042969 30.203125 C 2.429688 29.273438 2.898438 28.390625 3.457031 27.554688 C 4.015625 26.71875 4.652344 25.945312 5.363281 25.234375 C 6.074219 24.523438 6.847656 23.890625 7.679688 23.332031 C 8.515625 22.773438 9.398438 22.300781 10.328125 21.917969 C 11.257812 21.53125 12.214844 21.242188 13.199219 21.046875 C 14.1875 20.851562 15.179688 20.753906 16.1875 20.753906 Z M 16.1875 20.753906 " fill-opacity="1" fill-rule="nonzero"/></g><g clip-path="url(#52389c5541)"><g clip-path="url(#901a6f3c4e)"><path fill="url(#5061158e1c)" d="M 19.003906 49.847656 L 19.003906 81.40625 L 61.207031 81.40625 L 61.207031 49.847656 Z M 19.003906 49.847656 " fill-rule="nonzero"/></g></g><g mask="url(#5966ec91b0)"><g transform="matrix(1, 0, 0, 1, 14, 33)"><g clip-path="url(#cb13dc6b9b)"><g clip-path="url(#7eb456f25d)"><g clip-path="url(#4a6da7d378)"><path fill="url(#785cf81dea)" d="M 0.238281 1.054688 L 0.238281 32.613281 L 42.441406 32.613281 L 42.441406 1.054688 Z M 0.238281 1.054688 " fill-rule="nonzero"/></g></g></g></g></g></svg>